# xmcd
#
# Track frame offsets:
# 150
# 19923
# 40973
# 60910
# 82950
# 94528
# 107240
# 126345
# 150190
# 171248
# 189378
# 207880
#
# Disc length: 3066 seconds
#
#
# Revision: 4
# Processed by: cddbd v1.5.2PL0 Copyright (c) Steve Scherf et al.
# Submitted via: FreeRIP 2.945 
#
DISCID=8f0bf80c
DTITLE=Stereo MC's - Deep down and dirty
DYEAR=2001
DGENRE=Rock
TTITLE0=Deep down and dirty
TTITLE1=We belong in this world together
TTITLE2=Breeze
TTITLE3=Running
TTITLE4=Graffiti part one
TTITLE5=Graffiti part two
TTITLE6=Sofisticated
TTITLE7=Traffic
TTITLE8=The right effect
TTITLE9=Stop at nothing
TTITLE10=Unconscious
TTITLE11=Shameless
EXTD=
EXTT0=
EXTT1=
EXTT2=
EXTT3=
EXTT4=
EXTT5=
EXTT6=
EXTT7=
EXTT8=
EXTT9=
EXTT10=
EXTT11=
PLAYORDER=
